<svg width="20" height="20" viewBox="0 0 20 20" fill="none" xmlns="http://www.w3.org/2000/svg">
<g clip-path="url(#clip0_41949_1462)">
<mask id="mask0_41949_1462" style="mask-type:luminance" maskUnits="userSpaceOnUse" x="0" y="0" width="20" height="20">
<path d="M20 10C20 4.47715 15.5228 0 10 0C4.47715 0 0 4.47715 0 10C0 15.5228 4.47715 20 10 20C15.5228 20 20 15.5228 20 10Z" fill="white"/>
</mask>
<g mask="url(#mask0_41949_1462)">
<path d="M20 10C20 4.47715 15.5228 0 10 0C4.47715 0 0 4.47715 0 10C0 15.5228 4.47715 20 10 20C15.5228 20 20 15.5228 20 10Z" fill="#003399"/>
<path d="M9.2007 3.70473L10.0003 3.23219L10.7999 3.70988L10.5866 2.81631L11.2906 2.21501L10.3641 2.13389L10.0003 1.29053L9.63648 2.12874L8.70996 2.20986L9.41401 2.81244L9.2007 3.70473Z" fill="#FFCC00"/>
<path d="M1.78078 11.2853L2.58036 10.8128L3.37995 11.2904L3.16663 10.3969L3.87068 9.79558L2.94417 9.71446L2.58036 8.87109L2.21656 9.70931L1.29004 9.79042L1.99409 10.393L1.78078 11.2853Z" fill="#FFCC00"/>
<path d="M16.6196 11.2853L17.4192 10.8128L18.2188 11.2904L18.0055 10.3969L18.7096 9.79558L17.783 9.71446L17.4192 8.87109L17.0554 9.70931L16.1289 9.79042L16.833 10.393L16.6196 11.2853Z" fill="#FFCC00"/>
<path d="M2.74856 7.57533L3.54814 7.10279L4.34772 7.58049L4.13441 6.68691L4.83846 6.08561L3.91194 6.0045L3.54814 5.16113L3.18433 5.99935L2.25781 6.08046L2.96186 6.68305L2.74856 7.57533Z" fill="#FFCC00"/>
<path d="M5.32961 4.83364L6.12919 4.3611L6.92877 4.83879L6.71546 3.94521L7.41951 3.34392L6.493 3.2628L6.12919 2.41943L5.76539 3.25765L4.83887 3.33876L5.54292 3.94135L5.32961 4.83364Z" fill="#FFCC00"/>
<path d="M13.0718 4.83364L13.8714 4.3611L14.671 4.83879L14.4577 3.94521L15.1617 3.34392L14.2352 3.2628L13.8714 2.41943L13.5076 3.25765L12.5811 3.33876L13.2851 3.94135L13.0718 4.83364Z" fill="#FFCC00"/>
<path d="M15.6519 7.57533L16.4515 7.10279L17.251 7.58049L17.0377 6.68691L17.7418 6.08561L16.8153 6.0045L16.4515 5.16113L16.0877 5.99935L15.1611 6.08046L15.8652 6.68305L15.6519 7.57533Z" fill="#FFCC00"/>
<path d="M15.6519 14.9948L16.4515 14.5222L17.251 14.9999L17.0377 14.1063L17.7418 13.505L16.8153 13.4239L16.4515 12.5806L16.0877 13.4188L15.1611 13.4999L15.8652 14.1025L15.6519 14.9948Z" fill="#FFCC00"/>
<path d="M13.0718 17.5753L13.8714 17.1028L14.671 17.5805L14.4577 16.6869L15.1617 16.0856L14.2352 16.0045L13.8714 15.1611L13.5076 15.9993L12.5811 16.0805L13.2851 16.683L13.0718 17.5753Z" fill="#FFCC00"/>
<path d="M5.32961 17.5753L6.12919 17.1028L6.92877 17.5805L6.71546 16.6869L7.41951 16.0856L6.493 16.0045L6.12919 15.1611L5.76539 15.9993L4.83887 16.0805L5.54292 16.683L5.32961 17.5753Z" fill="#FFCC00"/>
<path d="M2.74856 14.9948L3.54814 14.5222L4.34772 14.9999L4.13441 14.1063L4.83846 13.505L3.91194 13.4239L3.54814 12.5806L3.18433 13.4188L2.25781 13.4999L2.96186 14.1025L2.74856 14.9948Z" fill="#FFCC00"/>
<path d="M9.2007 18.7047L10.0003 18.2322L10.7999 18.7099L10.5866 17.8163L11.2906 17.215L10.3641 17.1339L10.0003 16.2905L9.63648 17.1287L8.70996 17.2099L9.41401 17.8124L9.2007 18.7047Z" fill="#FFCC00"/>
</g>
</g>
<defs>
<clipPath id="clip0_41949_1462">
<rect width="20" height="20" fill="white"/>
</clipPath>
</defs>
</svg>
